<svg xmlns="http://www.w3.org/2000/svg" width="146" height="32" fill="none"><g fill="#BDBDBD" clip-path="url(#a)"><path d="m.066 21.415 10.37-4.755 5.97 3.566 1.206 11.7-7.356-.062 1.085-8.134-1.266-.75-6.21 5.005zm16.993-1.693 9.164 6.944 3.618-6.694-7.356-3.066v-1.501l7.356-3.128-3.618-6.632-9.164 6.944zm-.653-7.694 1.206-11.7-7.356.125 1.085 8.134-1.266.75-6.27-5.005L.066 10.84l10.37 4.755zm37.974 2.695v10.96h3.96V11.716h-5.766v3.008zm-.114-4.97q.544.586 1.657.586 1.114 0 1.633-.586.545-.612.544-1.53.001-.943-.544-1.53-.519-.61-1.633-.611-1.113 0-1.657.612-.52.585-.52 1.53 0 .915.52 1.529m-13.66 15.626q1.683.79 4.132.79 2.301 0 3.96-.74 1.657-.738 2.547-2.064.916-1.35.916-3.135 0-1.734-.866-2.932-.84-1.223-2.35-1.911-1.51-.714-3.49-.893l-1.385-.127q-1.237-.102-1.782-.689a1.96 1.96 0 0 1-.544-1.376q0-.612.297-1.121.297-.536.89-.842.62-.306 1.51-.306.94 0 1.559.357.136.075.258.162l.02.014q.045.032.089.066a2.47 2.47 0 0 1 .92 1.951h3.958q0-1.836-.816-3.187-.816-1.376-2.35-2.116-1.51-.764-3.638-.764-2.03 0-3.514.713-1.484.69-2.325 1.989-.817 1.3-.817 3.084 0 2.472 1.609 3.977 1.608 1.503 4.305 1.733l1.361.127q1.657.153 2.4.689.742.51.742 1.402a2.14 2.14 0 0 1-.396 1.275q-.396.534-1.163.84t-1.905.306q-1.262 0-2.053-.357-.793-.382-1.189-.994a2.5 2.5 0 0 1-.37-1.325H37.19q0 1.81.866 3.211.866 1.378 2.55 2.193m26.579.482q-2.055 0-3.316-.51a3.53 3.53 0 0 1-1.856-1.759q-.569-1.248-.569-3.364v-5.532h-2.053v-2.982h2.053V7.94h3.687v3.773h3.96v2.982h-3.96v5.685q0 .994.495 1.529.52.51 1.46.51h2.004v3.441h-1.905Z"/><path fill-rule="evenodd" d="M73.847 25.56q1.336.612 3.068.612 1.707 0 3.019-.612a5.92 5.92 0 0 0 3.34-4.206h-3.637q-.247.638-.94 1.07-.693.434-1.782.434-.675 0-1.205-.164a2.7 2.7 0 0 1-.725-.346q-.743-.51-1.088-1.427a5 5 0 0 1-.166-.546 6 6 0 0 1-.113-.601h9.904v-1.377q0-1.912-.792-3.517a6.5 6.5 0 0 0-2.301-2.626q-1.484-1.02-3.663-1.02-1.658 0-2.969.612a6.1 6.1 0 0 0-2.152 1.606 7.5 7.5 0 0 0-1.337 2.32 8 8 0 0 0-.445 2.676v.51q0 1.35.445 2.651.471 1.275 1.337 2.32a6.6 6.6 0 0 0 2.202 1.631m-.161-8.307a4.7 4.7 0 0 1 .235-.793q.371-.944 1.089-1.427.268-.182.58-.295.526-.19 1.176-.19 1.016 0 1.683.485.693.458 1.04 1.35a4 4 0 0 1 .13.39 5 5 0 0 1 .143.681h-6.114a4 4 0 0 1 .038-.2Z" clip-rule="evenodd"/><path d="M85.156 25.687V11.718H88.3v3.519a7 7 0 0 1 .297-1.071q.52-1.428 1.558-2.142 1.04-.74 2.55-.739h.172q1.534 0 2.549.74 1.039.713 1.559 2.14l.027.072.023.066.048-.138q.546-1.427 1.584-2.14 1.04-.74 2.549-.74h.173q1.534 0 2.573.74 1.065.713 1.608 2.14.545 1.428.545 3.57v7.952h-3.959v-8.182q0-1.147-.594-1.861-.568-.714-1.633-.714c-1.065 0-1.27.247-1.682.74q-.62.713-.62 1.911v8.106h-3.983v-8.182q0-1.147-.594-1.861-.569-.714-1.608-.714-1.089 0-1.707.74-.618.713-.619 1.911v8.106h-3.959Z"/><path fill-rule="evenodd" d="M116.686 22.995v2.692h3.142v-8.565q0-1.937-.742-3.161-.742-1.25-2.177-1.86-1.41-.613-3.489-.613a46 46 0 0 0-1.534.026q-.817.025-1.584.076l-.39.027a59 59 0 0 0-.946.075v3.441a138 138 0 0 1 2.229-.128 69 69 0 0 1 2.745-.075q1.088 0 1.583.535t.495 1.606v.05h-2.449q-1.806 0-3.193.485-1.385.459-2.152 1.453-.767.97-.767 2.498 0 1.402.618 2.422a4.1 4.1 0 0 0 1.708 1.529q1.113.535 2.573.535 1.41 0 2.376-.535a3.75 3.75 0 0 0 1.534-1.529q.095-.168.179-.348.117-.256.21-.537zm-.668-2.483V19.39h-2.474q-1.04 0-1.608.536-.545.51-.545 1.402 0 .42.136.763.136.345.409.613.569.51 1.608.51.198 0 .382-.02a2.7 2.7 0 0 0 .806-.21q.544-.255.89-.84.346-.587.396-1.632" clip-rule="evenodd"/><path d="M122.203 25.686V11.717h3.143v4.611q.226-1.974 1.138-3.183 1.237-1.606 3.563-1.606h.52v3.518h-.99q-1.633 0-2.524.917-.891.893-.891 2.6v7.112zm13.385-6.526h1.311l4.281 6.526h4.453l-5.427-8.014 4.463-5.955h-4.157l-4.924 6.642V7.08h-3.959v18.607h3.959v-6.525Z"/></g><defs><clipPath id="a"><path fill="#fff" d="M0 0h146v32H0z"/></clipPath></defs></svg>