<svg xmlns="http://www.w3.org/2000/svg" width="132" height="37" fill="none"><path fill="#BDBDBD" d="M49.281 29.187 41.608 17.96 49.28 7.945h4.444L45.992 17.96l7.733 11.228h-4.444Zm-11.761 0V7.945h3.792v21.242zm21.066.304q-1.185 0-2.163-.531a4.03 4.03 0 0 1-1.555-1.563q-.578-1.017-.578-2.458 0-1.29.578-2.2a5 5 0 0 1 1.54-1.533 8.5 8.5 0 0 1 2.074-.97q1.125-.365 2.207-.532 1.096-.167 1.926-.197-.06-1.305-.652-1.897-.592-.591-2.014-.591-.994 0-1.941.288-.933.273-2.118.865l-.326-3.065a13 13 0 0 1 2.666-1.002 11.3 11.3 0 0 1 2.726-.333q1.659 0 2.858.607t1.852 1.957q.652 1.335.652 3.535v4.097q0 1.137.104 1.654.103.5.385.637.282.136.814.136h.474l-.326 3.096h-1.333a4.5 4.5 0 0 1-1.48-.228 3.2 3.2 0 0 1-1.097-.607 3.2 3.2 0 0 1-.74-.925q-.727.833-1.97 1.304a7.3 7.3 0 0 1-2.563.456m1.54-2.883q.488 0 1.215-.258.725-.273 1.303-.835v-3.459a8.7 8.7 0 0 0-2.073.349q-1.038.303-1.733.895-.697.592-.697 1.487 0 .925.474 1.38.475.44 1.51.44Zm10.015 2.58V14.013h3.436l.149 2.823-.86-1.154a10 10 0 0 1 2.015-1.32q1.17-.591 2.726-.591 2.844 0 4.221 1.942 1.378 1.926 1.378 5.007v8.466h-3.674v-8.163q0-2.124-.696-3.14-.681-1.017-2.237-1.017-1.258 0-2.059.637-.8.622-1.407 1.67l.682-1.852v11.865H70.14Zm20.553.303q-1.466 0-2.651-.289-1.17-.288-2.356-.834l.326-3.217q1.14.683 2.237 1.108a6.7 6.7 0 0 0 2.326.41q1.095 0 1.674-.365.577-.364.577-1.153 0-.591-.31-.97-.297-.38-.904-.684a18 18 0 0 0-1.511-.652q-1.363-.516-2.326-1.123-.948-.607-1.452-1.456-.489-.865-.489-2.125 0-1.304.667-2.306.667-1.001 1.896-1.563 1.23-.561 2.918-.561 1.407 0 2.519.319a9 9 0 0 1 2.073.864l-.326 3.217a11.7 11.7 0 0 0-2-1.168 5.15 5.15 0 0 0-2.206-.47q-.948-.001-1.467.394-.519.394-.518 1.123 0 .879.725 1.32.727.44 2.326 1.077 1.037.41 1.792.85.771.44 1.274.97.504.532.741 1.215.252.667.252 1.547 0 1.441-.682 2.458-.666 1.001-1.97 1.533-1.288.53-3.155.53Zm11.52 0q-1.185 0-2.162-.531a4.03 4.03 0 0 1-1.556-1.563q-.578-1.017-.578-2.458 0-1.29.578-2.2a5 5 0 0 1 1.541-1.533 8.5 8.5 0 0 1 2.074-.97q1.125-.365 2.207-.532a17 17 0 0 1 1.925-.197q-.059-1.305-.651-1.897-.593-.591-2.015-.591a6.6 6.6 0 0 0-1.94.288q-.934.273-2.119.865l-.326-3.065a13 13 0 0 1 2.667-1.002 11.3 11.3 0 0 1 2.725-.333q1.659 0 2.859.607t1.852 1.957q.651 1.335.651 3.535v4.097q0 1.137.104 1.654.104.5.385.637.281.136.815.136h.474l-.326 3.096h-1.333a4.5 4.5 0 0 1-1.481-.228 3.2 3.2 0 0 1-1.096-.607 3.2 3.2 0 0 1-.741-.925q-.726.833-1.97 1.304a7.3 7.3 0 0 1-2.563.456m1.541-2.883q.488 0 1.215-.258.725-.273 1.303-.835v-3.459a8.7 8.7 0 0 0-2.074.349q-1.037.303-1.733.895t-.696 1.487q0 .925.474 1.38.474.44 1.511.44Zm14.221 2.883q-1.466 0-2.651-.289a13 13 0 0 1-2.355-.834l.326-3.217q1.14.683 2.237 1.108 1.11.41 2.325.41 1.096 0 1.674-.365.578-.364.578-1.153 0-.591-.311-.97-.297-.38-.904-.684-.608-.303-1.511-.652-1.363-.516-2.325-1.123-.95-.607-1.452-1.456-.489-.865-.489-2.125 0-1.304.667-2.306.666-1.001 1.896-1.563 1.229-.561 2.918-.561 1.407 0 2.518.319 1.126.318 2.073.864l-.325 3.217a11.7 11.7 0 0 0-2-1.168 5.15 5.15 0 0 0-2.207-.47q-.948-.001-1.467.394-.518.394-.518 1.123 0 .879.726 1.32.726.44 2.325 1.077a13 13 0 0 1 1.793.85q.77.44 1.274.97.503.532.74 1.215.252.667.252 1.547 0 1.441-.681 2.458-.667 1.001-1.97 1.533-1.289.53-3.156.53Zm-93.605-5.237V6.379l6.295 6.366V30.62h-17.45L7 24.254z"/><path fill="#BDBDBD" d="M15.765 6.379H7v8.978h8.765z"/></svg>