<svg xmlns="http://www.w3.org/2000/svg" width="129" height="32" fill="none"><g fill="#BDBDBD" clip-path="url(#a)"><path d="M25.673 1.146C25.8.135 24.515-.413 23.862.375L9.236 18c-.551.665-.075 1.666.793 1.666h13.09c.617 0 1.095.536 1.02 1.143l-1.25 10.045c-.127 1.011 1.158 1.559 1.811.771L39.326 14c.551-.665.075-1.666-.793-1.666h-13.09a1.02 1.02 0 0 1-1.02-1.143z"/><path fill-rule="evenodd" d="m45.116 26.076 1.207-4.1h7.176l1.226 4.1h3.705L52.607 6.398h-5.373L41.41 26.076zm7.345-7.57h-5.117l2.54-8.625zm15.087 7.064q-1.383.942-3.488.943-1.68 0-2.74-.588-1.058-.588-1.647-1.49a6.3 6.3 0 0 1-.84-1.878 10 10 0 0 1-.305-1.783 20 20 0 0 1-.053-1.176v-8.28h3.653v6.969q0 .506.053 1.29.053.786.33 1.58.279.792.907 1.325.63.533 1.78.533.464 0 .993-.15.53-.15.993-.581t.76-1.271q.3-.84.299-2.207v-7.488h3.626v14.758h-3.177v-1.52l-.015.018a6 6 0 0 1-1.13.996Zm9.734.506v-7.543q0-.848.225-1.524.225-.677.662-1.175a3.3 3.3 0 0 1 1.072-.8q.635-.314 1.422-.375.789-.062 1.383.13v-3.471a6.5 6.5 0 0 0-1.296-.034 5.7 5.7 0 0 0-1.258.232q-.608.185-1.125.512-.675.41-1.138 1.039-.21.285-.383.6l-.014.027v-2.376h-3.176v14.758zm15.8-.581q-1.633.99-3.778.99-2.157 0-3.785-.997c-1.628-.997-1.93-1.583-2.535-2.753q-.906-1.756-.906-4.038 0-2.31.926-4.066.927-1.755 2.555-2.74 1.628-.983 3.745-.983 2.158 0 3.792.997 1.635.998 2.548 2.754.912 1.755.913 4.038 0 2.295-.92 4.051-.92 1.755-2.554 2.747Zm-3.778-2.48q-1.68 0-2.548-1.169-.866-1.168-.867-3.15 0-1.284.365-2.254.363-.97 1.118-1.517.754-.546 1.932-.546 1.707 0 2.574 1.175.868 1.174.867 3.143 0 1.899-.853 3.108-.855 1.21-2.588 1.21m12.042-4.482v7.543h-3.627V11.318h3.177v2.375l.014-.027a5 5 0 0 1 .383-.6 3.9 3.9 0 0 1 1.138-1.038 4.5 4.5 0 0 1 1.125-.512q.609-.184 1.257-.232a6.5 6.5 0 0 1 1.297.034v3.47q-.596-.19-1.383-.13a3.9 3.9 0 0 0-1.423.377q-.635.3-1.071.799a3.4 3.4 0 0 0-.662 1.175 4.8 4.8 0 0 0-.225 1.524m10.763 7.952q1.854 0 3.064-.662.91-.498 1.724-1.46l.083-.1v1.813h3.15v-9.02q0-1.01-.079-1.83a4.5 4.5 0 0 0-.503-1.64q-.755-1.476-2.224-2.077-1.469-.6-3.362-.601-2.58 0-4.076 1.148a5.7 5.7 0 0 0-2.038 2.979l3.256 1.065q.344-1.011 1.204-1.407t1.654-.396q1.43 0 2.039.614.468.474.576 1.359l.004.036-.155.024-1.361.209-.216.033q-1.39.21-2.488.444-1.098.232-1.893.533-1.15.436-1.833 1.086a3.84 3.84 0 0 0-.986 1.496 5.5 5.5 0 0 0-.304 1.872q0 1.23.549 2.248.55 1.018 1.615 1.626t2.6.608m-.304-3.115q.45.19 1.072.191.993 0 1.674-.362.682-.362 1.085-.827.405-.464.55-.779.278-.6.324-1.4l.007-.132q.022-.388.031-.71l.001-.033-.117.02q-.816.143-1.411.254-.993.184-1.601.334-.609.15-1.072.328a3.7 3.7 0 0 0-.854.472 1.7 1.7 0 0 0-.477.553q-.152.3-.152.67 0 .506.245.867.245.362.695.554" clip-rule="evenodd"/></g><defs><clipPath id="a"><path fill="#fff" d="M0 0h129v32H0z"/></clipPath></defs></svg>