<svg xmlns="http://www.w3.org/2000/svg" width="133" height="49" fill="none"><path fill="#BDBDBD" d="M74.875 34.818c0 .277.255.498.56.485l4.522-.197c.285-.012.509-.225.509-.484V21.657c0-.276-.253-.496-.556-.485l-4.522.164c-.287.01-.513.225-.513.485zm.695-16.078q.83.753 2.076.753 1.31 0 2.108-.753.831-.783.831-1.943 0-1.13-.83-1.913-.8-.782-2.11-.782-1.245 0-2.076.782a2.53 2.53 0 0 0-.83 1.913q0 1.16.83 1.942Z"/><path fill="#BDBDBD" fill-rule="evenodd" d="M61.418 27.002v7.047c0 .233-.183.434-.436.477l-4.65.788c-.329.056-.633-.173-.633-.476V15.254c0-.267.24-.484.535-.484h9.114q2.3 0 4.025.782 1.757.783 2.748 2.145.99 1.363.99 3.189t-1.023 3.217q-.99 1.363-2.779 2.145a9 9 0 0 1-1.662.511l6.066 7.49c.295.365-.072.866-.557.759l-5.013-1.103a.54.54 0 0 1-.29-.166l-6.026-6.737zm0-3.71h3.13q1.406 0 2.141-.609.767-.638.767-1.71 0-1.044-.767-1.681-.735-.667-2.14-.667h-3.131z" clip-rule="evenodd"/><path fill="#BDBDBD" d="M88.04 35.73q-1.437 0-2.843-.348a14 14 0 0 1-2.587-.927 9.2 9.2 0 0 1-1.64-1.064c-.215-.176-.212-.477-.01-.664l2.286-2.118c.211-.196.557-.192.787-.015q.63.484 1.42.788 1.085.405 2.3.406.703 0 1.055-.174.383-.174.383-.493 0-.463-.543-.695-.512-.262-1.374-.435-.831-.203-1.757-.464a10 10 0 0 1-1.79-.754 3.8 3.8 0 0 1-1.405-1.304q-.51-.84-.511-2.145 0-1.362.799-2.377.83-1.044 2.3-1.623 1.47-.61 3.45-.61 2.013 0 3.834.639c1.032.345 2.07 1.013 2.815 1.717.209.197.168.51-.07.676l-2.645 1.846c-.222.155-.535.124-.744-.047-.363-.296-.706-.45-1.177-.598q-.927-.32-1.693-.319-.735 0-1.055.203-.319.174-.32.493 0 .377.512.608.543.232 1.374.435.862.173 1.757.464a7.5 7.5 0 0 1 1.757.812 3.77 3.77 0 0 1 1.374 1.333q.543.84.543 2.174 0 2.116-1.789 3.363-1.79 1.217-4.792 1.217Z"/><path fill="#BDBDBD" fill-rule="evenodd" d="M98.8 34.715q2.014.927 4.634.927 2.076 0 3.705-.609a7.5 7.5 0 0 0 2.469-1.465c.2-.18.188-.472-.011-.653l-2.151-1.951c-.218-.198-.573-.185-.801.003a4.4 4.4 0 0 1-1.199.704q-.863.348-2.012.348-1.215 0-2.045-.435a3 3 0 0 1-1.278-1.276 4 4 0 0 1-.192-.446l10.543-.044c.245-.002.459-.152.507-.37a4.5 4.5 0 0 0 .1-.647 7 7 0 0 0 .064-.898q0-2.058-1.054-3.653-1.023-1.623-2.876-2.522-1.821-.927-4.185-.927-2.428 0-4.377.985-1.917.957-3.035 2.638-1.118 1.653-1.118 3.797 0 2.175 1.15 3.856 1.15 1.68 3.163 2.638Zm1.107-8.109q.075-.216.172-.414.415-.84 1.182-1.304t1.821-.464q1.022 0 1.693.406.67.406 1.023 1.189.115.247.196.541z" clip-rule="evenodd"/><path fill="#BDBDBD" d="M104.545 18.787v-3.74h1.048v3.74zm-1.272-2.95v-.817h3.591v.818zm3.775 2.95V15.02h.756l1.593 2.184h-.358l1.588-2.184h.755v3.767h-1.036v-2.194l.163.042-.954 1.302h-.68l-.948-1.302.163-.042v2.194zm-78.653-5.746c0-.287.236-.53.55-.566l3.772-.428c.375-.042.706.223.706.566V23.87c0 .343-.33.609-.706.566l-3.772-.427c-.314-.036-.55-.279-.55-.566v-10.4Zm-7.535 1.426c0-.288.235-.53.55-.566l3.772-.428c.375-.042.706.223.706.566v8.975c0 .343-.331.608-.706.566l-3.772-.428c-.315-.036-.55-.279-.55-.566zm19.63-1.465c.28.063.477.291.477.553v4.755c0 .288-.237.53-.551.566l-3.772.428c-.375.042-.706-.223-.706-.566V12.7c0-.371.384-.644.78-.554zm7.39 1.978c0-.26-.196-.489-.475-.552l-3.772-.856c-.397-.09-.781.182-.781.553v4.327c0 .343.331.609.706.566l3.772-.427c.315-.036.55-.279.55-.566z"/><path fill="#BDBDBD" d="m47.89 20.809-12.258.285c.178 2.092 2.1 3.707 4.413 3.707h2.816v2.428L20.86 25.372v11.89l27.031-1.71V20.808Z"/></svg>