<svg xmlns="http://www.w3.org/2000/svg" width="127" height="25" fill="none"><path fill="#BDBDBD" d="M16.39 24.58 10.177 9.72q-.492-1.19-1.686-1.574L8 8.006v-.35h9.092v.35l-.631.14q-1.37.35-.843 1.818l3.686 9.755 3.44-9.685q.281-.698.14-1.154-.14-.454-.842-.664l-.877-.21v-.35h5.09v.35l-1.018.245q-.667.174-1.053.524-.351.35-.597 1.05l-5.16 14.754zM35.374 7.133q2.282 0 3.897.944a6.07 6.07 0 0 1 2.457 2.517q.878 1.575.878 3.602 0 .384-.035.804-.035.385-.14.7H31.969q.035 3.775 1.334 5.454 1.334 1.643 3.932 1.643 1.755 0 2.843-.56 1.09-.558 2.036-1.643l.352.315q-1.089 1.923-2.914 3.007Q37.762 25 35.234 25q-2.492 0-4.424-1.049-1.93-1.084-3.019-3.077-1.088-1.994-1.088-4.755 0-2.868 1.264-4.86 1.263-2.028 3.23-3.077 2-1.05 4.177-1.05Zm-.105.7q-1.019 0-1.755.628-.703.596-1.124 2.168-.386 1.539-.421 4.371h6.003q.35-3.81-.28-5.49-.633-1.677-2.423-1.678Zm9.441 16.643v-.35l.492-.14q1.23-.35 1.23-1.713V11.329q0-.77-.247-1.12-.245-.383-.948-.524l-.526-.14v-.35l6.003-2.027.351.35.28 2.097a11 11 0 0 1 2.774-1.783q1.545-.7 3.054-.7 2.317 0 3.546 1.26 1.264 1.258 1.264 3.846v10.07q0 1.364 1.334 1.713l.316.105v.35h-8.285v-.35l.456-.14q1.23-.385 1.23-1.713V11.119q0-2.238-2.248-2.238-1.545 0-3.37 1.538v11.889q0 1.364 1.229 1.713l.316.105v.35h-8.25ZM69.572 5.315q-1.194 0-2.036-.735-.807-.768-.807-1.923 0-1.188.807-1.923Q68.378 0 69.572 0c1.194 0 1.463.245 2.001.734q.808.734.808 1.923 0 1.154-.808 1.923-.807.735-2 .735Zm-4.142 19.16v-.35l.491-.139q.702-.21.948-.63.28-.42.28-1.118V11.294q0-.735-.28-1.084-.246-.385-.948-.525l-.491-.105v-.35l6.424-2.062.351.35-.105 4.965v9.79q0 .699.246 1.119.28.42.947.629l.351.105v.35H65.43ZM84.253 25q-2.386 0-4.353-1.014-1.93-1.05-3.09-3.007-1.123-1.993-1.123-4.86 0-2.832 1.23-4.825 1.263-2.028 3.334-3.077 2.107-1.084 4.599-1.084 2.036 0 3.44.664 1.404.665 2.142 1.748.737 1.05.737 2.203 0 .98-.597 1.539-.596.524-1.544.524-1.018 0-1.65-.734-.633-.734-.737-1.923a7.4 7.4 0 0 1 .035-1.294 4.5 4.5 0 0 0 0-1.119q-.14-.594-.457-.769-.28-.21-.807-.21-2.142 0-3.335 1.853-1.16 1.853-1.159 5.91 0 3.53 1.3 5.419 1.333 1.853 4.071 1.853 1.65 0 2.668-.594 1.02-.594 1.966-1.784l.351.28q-.877 2.063-2.703 3.182T84.253 25m17.598-17.867q2.281 0 3.897.944a6.1 6.1 0 0 1 2.457 2.517q.878 1.575.878 3.602 0 .384-.036.804-.035.385-.14.7H98.445q.036 3.775 1.334 5.454 1.335 1.643 3.932 1.643 1.756 0 2.844-.56 1.088-.558 2.036-1.643l.351.315q-1.088 1.923-2.914 3.007Q104.238 25 101.71 25q-2.492 0-4.423-1.049-1.93-1.084-3.02-3.077-1.087-1.994-1.087-4.755 0-2.868 1.263-4.86 1.265-2.028 3.23-3.077 2.001-1.05 4.178-1.05Zm-.106.7q-1.018 0-1.755.628-.703.596-1.123 2.168-.386 1.539-.422 4.371h6.003q.351-3.81-.28-5.49-.632-1.677-2.423-1.678Zm14.008 17.165q-1.263 0-2.141-.874a2.86 2.86 0 0 1-.878-2.098q0-1.223.878-2.133a2.86 2.86 0 0 1 2.141-.909q1.265 0 2.142.91t.877 2.132q0 1.224-.877 2.098c-.877.874-1.299.874-2.142.874"/></svg>