<svg xmlns="http://www.w3.org/2000/svg" width="141" height="25" fill="none"><g fill="#BDBDBD" clip-path="url(#a)"><path d="M44.519 7.596c0 3.038 2.015 5.218 5.83 6.308l3.852 1.09c1.98.56 2.735 1.353 2.735 2.873 0 2.113-1.943 3.467-4.967 3.467-2.951 0-4.751-1.255-4.967-3.401H42.54C42.827 22.39 46.282 25 51.825 25c5.687 0 9.466-3.005 9.466-7.497 0-3.071-1.763-5.02-5.506-6.11l-3.816-1.09c-2.123-.627-3.06-1.617-3.06-3.236 0-2.146 1.764-3.434 4.644-3.434 2.664 0 4.391 1.288 4.643 3.434h4.427C62.407 2.94 58.7 0 53.733 0c-5.507 0-9.214 3.005-9.214 7.596m27.325 17.368c4.03 0 7.558-2.245 8.782-5.647h-4.175c-.756 1.552-2.376 2.444-4.391 2.444-2.736 0-4.212-1.552-4.212-4.326v-.1l13.066-.033.216-1.221c.828-4.921-2.16-8.257-7.415-8.257-5.615 0-9.934 4.26-9.934 9.842 0 4.524 3.096 7.298 8.063 7.298m1.62-13.97c2.591 0 4.067 1.52 3.67 3.832h-8.817c.827-2.28 2.807-3.831 5.147-3.831Zm9.888 6.573c0 4.425 3.42 7.397 8.494 7.397 5.83 0 10.438-4.293 10.438-9.742 0-4.425-3.42-7.398-8.494-7.398-5.795 0-10.438 4.293-10.438 9.743m4.319-.298c0-3.368 2.663-6.043 5.903-6.043 2.7 0 4.39 1.684 4.39 4.293 0 3.336-2.627 6.01-5.866 6.01-2.736 0-4.427-1.684-4.427-4.26m30.705-9.011-1.475 8.752c-.504 2.873-2.232 4.49-4.788 4.49-2.303 0-3.527-1.584-3.059-4.226l1.584-9.016h-4.212l-1.727 9.94c-.684 3.831 1.799 6.803 5.723 6.803 2.376 0 3.959-.825 5.507-2.642l-.036 2.213h3.923l2.807-16.314zm10.273 16.312L132.896 0h-4.247l-4.211 24.57zM27.113 2.723 21.475 0 8.245 12.038l-.245.22 11.812 5.898 4.654-4.457-5.997-2.787z"/><path d="m17.984 21.475 5.638 2.723L36.86 12.152l.238-.213L25.322 6.14l-4.653 4.456 5.931 2.716z"/></g><defs><clipPath id="a"><path fill="#fff" d="M0 0h141v25H0z"/></clipPath></defs></svg>